<mxfile host="app.diagrams.net" agent="Mozilla/5.0 (Windows NT 10.0; Win64; x64) AppleWebKit/537.36 (KHTML, like Gecko) Chrome/131.0.0.0 Safari/537.36 Edg/131.0.0.0" version="25.0.3">
  <diagram name="Page-1" id="TEaCY1Ijoz9hG4Y2T5Hb">
    <mxGraphModel dx="1192" dy="655" grid="1" gridSize="10" guides="1" tooltips="1" connect="1" arrows="1" fold="1" page="1" pageScale="1" pageWidth="850" pageHeight="1100" math="0" shadow="0">
      <root>
        <mxCell id="0" />
        <mxCell id="1" parent="0" />
        <mxCell id="I3t7nO1HdXXGDnYEk2g--1" value="" style="rounded=0;whiteSpace=wrap;html=1;movable=0;resizable=0;rotatable=0;deletable=0;editable=0;locked=1;connectable=0;" vertex="1" parent="1">
          <mxGeometry x="140" y="167" width="570" height="696" as="geometry" />
        </mxCell>
        <mxCell id="I3t7nO1HdXXGDnYEk2g--2" value="Holy Huddle Multiplatform Application" style="text;html=1;align=center;verticalAlign=middle;whiteSpace=wrap;rounded=0;fontStyle=0" vertex="1" parent="1">
          <mxGeometry x="330" y="167" width="225" height="60" as="geometry" />
        </mxCell>
        <mxCell id="I3t7nO1HdXXGDnYEk2g--24" style="rounded=0;orthogonalLoop=1;jettySize=auto;html=1;endArrow=none;endFill=0;" edge="1" parent="1" source="I3t7nO1HdXXGDnYEk2g--3" target="I3t7nO1HdXXGDnYEk2g--12">
          <mxGeometry relative="1" as="geometry" />
        </mxCell>
        <mxCell id="I3t7nO1HdXXGDnYEk2g--25" style="rounded=0;orthogonalLoop=1;jettySize=auto;html=1;endArrow=none;endFill=0;" edge="1" parent="1" source="I3t7nO1HdXXGDnYEk2g--3" target="I3t7nO1HdXXGDnYEk2g--13">
          <mxGeometry relative="1" as="geometry" />
        </mxCell>
        <mxCell id="I3t7nO1HdXXGDnYEk2g--28" style="rounded=0;orthogonalLoop=1;jettySize=auto;html=1;endArrow=none;endFill=0;" edge="1" parent="1" source="I3t7nO1HdXXGDnYEk2g--3" target="I3t7nO1HdXXGDnYEk2g--16">
          <mxGeometry relative="1" as="geometry" />
        </mxCell>
        <mxCell id="I3t7nO1HdXXGDnYEk2g--3" value="Godparent" style="shape=umlActor;verticalLabelPosition=bottom;verticalAlign=top;html=1;outlineConnect=0;" vertex="1" parent="1">
          <mxGeometry x="30" y="450" width="30" height="60" as="geometry" />
        </mxCell>
        <mxCell id="I3t7nO1HdXXGDnYEk2g--6" value="Godchild" style="shape=umlActor;verticalLabelPosition=bottom;verticalAlign=top;html=1;outlineConnect=0;" vertex="1" parent="1">
          <mxGeometry x="790" y="450" width="30" height="60" as="geometry" />
        </mxCell>
        <mxCell id="I3t7nO1HdXXGDnYEk2g--12" value="Add Godchild" style="ellipse;whiteSpace=wrap;html=1;" vertex="1" parent="1">
          <mxGeometry x="215" y="305" width="140" height="70" as="geometry" />
        </mxCell>
        <mxCell id="I3t7nO1HdXXGDnYEk2g--13" value="Set Reminders" style="ellipse;whiteSpace=wrap;html=1;" vertex="1" parent="1">
          <mxGeometry x="210" y="395" width="140" height="70" as="geometry" />
        </mxCell>
        <mxCell id="I3t7nO1HdXXGDnYEk2g--15" value="Track Donations" style="ellipse;whiteSpace=wrap;html=1;" vertex="1" parent="1">
          <mxGeometry x="210" y="485" width="140" height="70" as="geometry" />
        </mxCell>
        <mxCell id="I3t7nO1HdXXGDnYEk2g--16" value="Set Prayer Reminders" style="ellipse;whiteSpace=wrap;html=1;" vertex="1" parent="1">
          <mxGeometry x="210" y="585" width="140" height="70" as="geometry" />
        </mxCell>
        <mxCell id="I3t7nO1HdXXGDnYEk2g--18" value="View Godparent Information" style="ellipse;whiteSpace=wrap;html=1;" vertex="1" parent="1">
          <mxGeometry x="480" y="340" width="140" height="70" as="geometry" />
        </mxCell>
        <mxCell id="I3t7nO1HdXXGDnYEk2g--19" value="Receive Reminders" style="ellipse;whiteSpace=wrap;html=1;" vertex="1" parent="1">
          <mxGeometry x="480" y="430" width="140" height="70" as="geometry" />
        </mxCell>
        <mxCell id="I3t7nO1HdXXGDnYEk2g--23" value="Receive Daily Quotes" style="ellipse;whiteSpace=wrap;html=1;" vertex="1" parent="1">
          <mxGeometry x="480" y="515" width="140" height="70" as="geometry" />
        </mxCell>
        <mxCell id="I3t7nO1HdXXGDnYEk2g--26" style="rounded=0;orthogonalLoop=1;jettySize=auto;html=1;endArrow=none;endFill=0;" edge="1" parent="1" source="I3t7nO1HdXXGDnYEk2g--3" target="I3t7nO1HdXXGDnYEk2g--15">
          <mxGeometry relative="1" as="geometry">
            <mxPoint x="60" y="470" as="sourcePoint" />
            <mxPoint x="220" y="440" as="targetPoint" />
          </mxGeometry>
        </mxCell>
        <mxCell id="I3t7nO1HdXXGDnYEk2g--29" style="rounded=0;orthogonalLoop=1;jettySize=auto;html=1;endArrow=none;endFill=0;" edge="1" parent="1" source="I3t7nO1HdXXGDnYEk2g--6" target="I3t7nO1HdXXGDnYEk2g--18">
          <mxGeometry relative="1" as="geometry">
            <mxPoint x="70" y="481" as="sourcePoint" />
            <mxPoint x="249" y="377" as="targetPoint" />
          </mxGeometry>
        </mxCell>
        <mxCell id="I3t7nO1HdXXGDnYEk2g--30" style="rounded=0;orthogonalLoop=1;jettySize=auto;html=1;exitX=0.5;exitY=0.5;exitDx=0;exitDy=0;exitPerimeter=0;endArrow=none;endFill=0;" edge="1" parent="1" source="I3t7nO1HdXXGDnYEk2g--6" target="I3t7nO1HdXXGDnYEk2g--19">
          <mxGeometry relative="1" as="geometry">
            <mxPoint x="800" y="484" as="sourcePoint" />
            <mxPoint x="614" y="407" as="targetPoint" />
          </mxGeometry>
        </mxCell>
        <mxCell id="I3t7nO1HdXXGDnYEk2g--31" style="rounded=0;orthogonalLoop=1;jettySize=auto;html=1;endArrow=none;endFill=0;" edge="1" parent="1" source="I3t7nO1HdXXGDnYEk2g--6" target="I3t7nO1HdXXGDnYEk2g--23">
          <mxGeometry relative="1" as="geometry">
            <mxPoint x="815" y="490" as="sourcePoint" />
            <mxPoint x="560" y="510" as="targetPoint" />
          </mxGeometry>
        </mxCell>
      </root>
    </mxGraphModel>
  </diagram>
</mxfile>
